<svg width="190" height="118" viewBox="0 0 190 118" fill="none" xmlns="http://www.w3.org/2000/svg">
<path d="M101.789 116.274L102.84 116.18L104.12 116.054L105.4 115.918L106.68 115.772L107.96 115.613L109.24 115.446L110.52 115.268L111.748 115.086L111.8 115.077L113.08 114.874L114.36 114.66L115.64 114.436L116.92 114.199L118.2 113.953L118.478 113.897L119.48 113.693L120.76 113.419L122.04 113.135L123.32 112.84L123.873 112.709L124.6 112.531L125.88 112.209L127.16 111.875L128.44 111.53L128.476 111.52L129.72 111.167L131 110.793L132.28 110.407L132.523 110.331L133.56 110.003L134.84 109.587L136.12 109.158L136.166 109.143L137.4 108.71L138.68 108.249L139.479 107.954L139.96 107.774L141.24 107.279L142.52 106.772L142.535 106.766L143.8 106.242L145.08 105.7L145.363 105.577L146.36 105.135L147.64 104.556L148.001 104.389L148.92 103.954L150.2 103.334L150.473 103.2L151.48 102.691L152.76 102.032L152.798 102.011L154.04 101.343L154.987 100.823L155.32 100.635L156.6 99.9017L157.057 99.6343L157.88 99.141L159.018 98.4457L159.16 98.3566L160.44 97.54L160.875 97.2571L161.72 96.6938L162.64 96.0686L163 95.8178L164.28 94.9085L164.32 94.88L165.56 93.9589L165.913 93.6914L166.84 92.9712L167.431 92.5029L168.12 91.9419L168.878 91.3143L169.4 90.8674L170.254 90.1257L170.68 89.7442L171.564 88.9371L171.96 88.5651L172.812 87.7486L173.24 87.3254L174 86.56L174.52 86.0168L175.129 85.3714L175.8 84.6333L176.204 84.1829L177.08 83.1654L177.225 82.9943L178.194 81.8057L178.36 81.5918L179.109 80.6171L179.64 79.8957L179.978 79.4286L180.8 78.24L180.92 78.057L181.573 77.0514L182.2 76.0316L182.302 75.8629L182.985 74.6743L183.48 73.7591L183.626 73.4857L184.221 72.2971L184.76 71.1478L184.778 71.1086L185.289 69.92L185.761 68.7314L186.04 67.9672L186.192 67.5429L186.583 66.3543L186.933 65.1657L187.246 63.9771L187.32 63.6538L187.517 62.7886L187.749 61.6L187.942 60.4114L188.097 59.2229L188.213 58.0343L188.29 56.8457L188.329 55.6571L188.327 54.4686L188.286 53.28L188.206 52.0914L188.085 50.9029L187.925 49.7143L187.726 48.5257L187.485 47.3371L187.32 46.6371L187.204 46.1486L186.877 44.96L186.51 43.7714L186.1 42.5829L186.04 42.4248L185.643 41.3943L185.143 40.2057L184.76 39.369L184.596 39.0171L184.001 37.8286L183.48 36.8587L183.36 36.64L182.666 35.4514L182.2 34.7014L181.922 34.2629L181.125 33.0743L180.92 32.7843L180.272 31.8857L179.64 31.0549L179.362 30.6971L178.395 29.5086L178.36 29.467L177.363 28.32L177.08 28.0098L176.266 27.1314L175.8 26.6512L175.101 25.9429L174.52 25.3783L173.865 24.7543L173.24 24.1826L172.553 23.5657L171.96 23.0546L171.159 22.3771L170.68 21.9873L169.68 21.1886L169.4 20.9734L168.12 20.0071L168.11 20L166.84 19.0943L166.436 18.8114L165.56 18.2207L164.654 17.6229L164.28 17.384L163 16.584L162.754 16.4343L161.72 15.8222L160.723 15.2457L160.44 15.0876L159.16 14.3864L158.543 14.0571L157.88 13.7125L156.6 13.0659L156.201 12.8686L155.32 12.4466L154.04 11.85L153.668 11.68L152.76 11.2795L151.48 10.7291L150.912 10.4914L150.2 10.2014L148.92 9.69627L147.895 9.30286L147.64 9.20777L146.36 8.74304L145.08 8.29376L144.551 8.11428L143.8 7.86469L142.52 7.45463L141.24 7.05764L140.798 6.92571L139.96 6.68087L138.68 6.32073L137.4 5.97366L136.491 5.73714L136.12 5.64324L134.84 5.32946L133.56 5.02994L132.28 4.7435L131.369 4.54857L131 4.47131L129.72 4.21577L128.44 3.9733L127.16 3.74272L125.88 3.52521L124.852 3.36L124.6 3.32078L123.32 3.13179L122.04 2.9535L120.76 2.78829L119.48 2.63497L118.2 2.49353L116.92 2.36398L115.64 2.24631L114.739 2.17143L114.36 2.14052L113.08 2.04782L111.8 1.967L110.52 1.89686L109.24 1.83744L107.96 1.7899L106.68 1.75424L105.4 1.72928L104.12 1.71501L102.84 1.71145L101.56 1.71977L100.28 1.73879L99 1.76851L97.72 1.80891L96.44 1.86002L95.16 1.92302L93.88 1.99552L92.6 2.0799L91.3546 2.17143L91.32 2.1738L90.04 2.28078L88.76 2.39963L87.48 2.528L86.2 2.66706L84.92 2.81682L83.64 2.97847L82.36 3.14962L81.08 3.33147L80.888 3.36L79.8 3.5264L78.52 3.73321L77.24 3.95072L75.96 4.17893L74.68 4.41783L74.0093 4.54857L73.4 4.6698L72.12 4.93485L70.84 5.2106L69.56 5.49586L68.5206 5.73714L68.28 5.79419L67 6.10797L65.72 6.43245L64.44 6.76763L63.8538 6.92571L63.16 7.11708L61.88 7.48078L60.6 7.85517L59.7386 8.11428L59.32 8.24265L58.04 8.64676L56.76 9.06276L56.0381 9.30286L55.48 9.49303L54.2 9.93875L52.92 10.3963L52.6602 10.4914L51.64 10.873L50.36 11.3627L49.5485 11.68L49.08 11.8678L47.8 12.3908L46.657 12.8686L46.52 12.9268L45.24 13.4854L43.96 14.056L43.9574 14.0571L42.68 14.6514L41.4256 15.2457L41.4 15.2576L40.12 15.8911L39.0423 16.4343L38.84 16.5389L37.56 17.2116L36.792 17.6229L36.28 17.9034L35 18.6189L34.6595 18.8114L33.72 19.3594L32.6384 20L32.44 20.12L31.16 20.9116L30.7184 21.1886L29.88 21.7294L28.8918 22.3771L28.6 22.5733L27.32 23.4492L27.1523 23.5657L26.04 24.3609L25.496 24.7543L24.76 25.3046L23.9165 25.9429L23.48 26.284L22.4099 27.1314L22.2 27.3026L20.9725 28.32L20.92 28.364L19.64 29.4741L19.6016 29.5086L18.36 30.6365L18.2934 30.6971L17.08 31.8536L17.0467 31.8857L15.8589 33.0743L15.8 33.1361L14.7286 34.2629L14.52 34.4911L13.6522 35.4514L13.24 35.9257L12.6282 36.64L11.96 37.4518L11.6541 37.8286L10.7299 39.0171L10.68 39.0837L9.85696 40.2057L9.40001 40.8582L9.02882 41.3943L8.24801 42.5829L8.12001 42.7885L7.51456 43.7714L6.84001 44.9291L6.82208 44.96L6.17825 46.1486L5.57409 47.3371L5.56001 47.3669L5.016 48.5257L4.4976 49.7143L4.28001 50.2575L4.02272 50.9029L3.59008 52.0914L3.19585 53.28L3.00001 53.9397L2.84385 54.4686L2.53409 55.6571L2.26401 56.8457L2.0336 58.0343L1.84288 59.2229L1.72001 60.1927L1.69313 60.4114L1.58432 61.6L1.51649 62.7886L1.48833 63.9771L1.50112 65.1657L1.55489 66.3543L1.65089 67.5429L1.72001 68.149L1.78784 68.7314L1.96833 69.92L2.19104 71.1086L2.45729 72.2971L2.76577 73.4857L3.00001 74.2785L3.11905 74.6743L3.51969 75.8629L3.96512 77.0514L4.28001 77.8169L4.45665 78.24L4.99936 79.4286L5.56001 80.5613L5.58817 80.6171L6.23073 81.8057L6.84001 82.854L6.92321 82.9943L7.67073 84.1829L8.12001 84.8532L8.47329 85.3714L9.33217 86.56L9.40001 86.6491L10.2525 87.7486L10.68 88.2715L11.2342 88.9371L11.96 89.7668L12.28 90.1257L13.24 91.155L13.3923 91.3143L14.52 92.4482L14.575 92.5029L15.8 93.6605L15.8333 93.6914L17.08 94.8004L17.1722 94.88L18.36 95.876L18.5942 96.0686L19.64 96.897L20.1047 97.2571L20.92 97.8669L21.711 98.4457L22.2 98.7916L23.4173 99.6343L23.48 99.6759L24.76 100.515L25.24 100.823L26.04 101.32L27.1818 102.011L27.32 102.092L28.6 102.829L29.2618 103.2L29.88 103.538L31.16 104.219L31.4877 104.389L32.44 104.869L33.72 105.499L33.8839 105.577L35 106.099L36.28 106.68L36.4733 106.766L37.56 107.235L38.84 107.771L39.288 107.954L40.12 108.285L41.4 108.78L42.3677 109.143L42.68 109.257L43.96 109.712L45.24 110.153L45.7738 110.331L46.52 110.575L47.8 110.979L49.08 111.369L49.5907 111.52L50.36 111.742L51.64 112.098L52.92 112.441L53.9555 112.709L54.2 112.77L55.48 113.082L56.76 113.38L58.04 113.665L59.1216 113.897L59.32 113.939L60.6 114.195L61.88 114.439L63.16 114.672L64.44 114.892L65.6266 115.086L65.72 115.101L67 115.294L68.28 115.476L69.56 115.646L70.84 115.805L72.12 115.952L73.4 116.089L74.68 116.214L75.3648 116.274L75.96 116.327L77.24 116.426L78.52 116.517L79.8 116.595L81.08 116.663L82.36 116.72L83.64 116.766L84.92 116.802L86.2 116.827L87.48 116.841L88.76 116.845L90.04 116.838L91.32 116.819L92.6 116.79L93.88 116.751L95.16 116.701L96.44 116.642L97.72 116.57L99 116.489L100.28 116.397L101.56 116.294L101.789 116.274Z" stroke="black" stroke-opacity="0.05" stroke-width="2"/>
</svg>
